# xmcd
#
# Track frame offsets: 
#        150
#        27313
#        47345
#        67549
#        85345
#
# Disc length: 1377 seconds
#
# Revision: 2
# Processed by: cddbd v1.5.2PL0 Copyright (c) Steve Scherf et al.
# Submitted via: ExactAudioCopy v1.3
#
DISCID=2e055f05
DTITLE=The Walkabouts - Slow days with Nina
DYEAR=2003
DGENRE=Americana
TTITLE0=The desperate ones
TTITLE1=Lilac wine
TTITLE2=Come ye
TTITLE3=Cotton-eyed Joe
TTITLE4=Nobody's fault but mine
EXTD=
EXTT0=
EXTT1=
EXTT2=
EXTT3=
EXTT4=
PLAYORDER=
